<svg version="1.1" id="Layer_1" xmlns="http://www.w3.org/2000/svg" xmlns:xlink="http://www.w3.org/1999/xlink" x="0px" y="0px"
	 width="100%" viewBox="0 0 512 512" enable-background="new 0 0 512 512" xml:space="preserve">
<path fill="#000000" opacity="1.000000" stroke="none" 
	d="
M321.468658,513.000000 
	C322.407257,509.522705 320.870361,506.133087 320.762756,502.699707 
	C320.136963,482.730804 320.417755,462.813019 325.656372,443.319672 
	C326.043823,441.877899 326.340820,440.359711 327.024048,439.057617 
	C333.169342,427.345825 330.055542,416.861877 323.739960,406.179077 
	C315.549774,392.325348 308.181030,377.985229 300.489563,363.837708 
	C295.651154,354.938049 290.822998,346.032074 286.093536,337.074371 
	C284.855286,334.729095 283.457703,333.978821 280.896027,335.089355 
	C272.512299,338.723846 264.041260,342.157104 255.661255,345.799957 
	C252.450455,347.195740 252.025375,349.531464 253.479904,352.764984 
	C257.906342,362.605347 262.078674,372.559753 266.377441,382.457855 
	C268.844391,388.138184 268.733917,388.279633 262.962311,390.737823 
	C252.731247,395.095367 242.511703,399.484192 232.360474,404.023438 
	C226.214310,406.771729 226.414810,406.866150 229.042847,412.869904 
	C233.959335,424.101532 238.688004,435.415375 243.762085,447.322235 
	C229.465637,453.449371 215.533035,459.420593 201.067520,465.620209 
	C196.762863,455.693848 192.670822,446.295288 188.614426,436.881378 
	C187.366470,433.985138 186.496780,430.888000 184.955399,428.165009 
	C182.615646,424.031708 183.870880,421.962708 188.020142,420.288208 
	C198.035645,416.246399 207.914413,411.866882 217.881577,407.703125 
	C219.577591,406.994659 221.302322,406.432220 223.153946,404.596039 
	C218.086807,392.998688 212.976196,381.166107 207.729645,369.394104 
	C206.494019,366.621674 204.303589,367.571167 202.192139,368.486481 
	C192.443802,372.712372 182.619736,376.767944 172.932617,381.128479 
	C169.374115,382.730316 167.354691,382.593567 165.687088,378.537415 
	C161.085983,367.346008 156.087769,356.317871 151.093353,344.874054 
	C144.358276,345.856812 138.823822,349.401459 132.880295,351.690552 
	C125.606255,354.492096 118.528435,357.806732 111.387146,360.948059 
	C106.530785,363.084290 106.059570,364.534027 108.144371,369.356201 
	C112.887001,380.326141 117.429573,391.384888 122.335289,402.280670 
	C123.926620,405.815125 121.864159,406.738831 119.507622,407.758148 
	C107.780251,412.830902 96.037628,417.868500 84.291008,422.896576 
	C71.018272,428.577881 57.689484,434.131622 44.484436,439.965698 
	C40.367290,441.784698 38.098831,441.709259 36.176270,436.875031 
	C31.091492,424.089417 25.408010,411.541931 19.908566,398.773712 
	C23.214985,395.081635 27.885355,394.458008 31.854252,392.644135 
	C41.671341,388.157410 51.637749,383.994141 61.580441,379.786682 
	C68.078560,377.036835 68.309532,376.382782 65.469978,369.826080 
	C60.530788,358.421234 55.721508,346.960114 50.662979,335.064514 
	C56.961983,330.800262 64.152748,328.660522 70.909691,325.718781 
	C89.641670,317.563477 108.478737,309.648254 127.312599,301.729309 
	C131.023132,300.169128 131.724350,298.391357 129.927048,294.496063 
	C124.647545,283.053894 119.895149,271.368500 114.751137,259.345490 
	C121.544716,255.170975 129.038025,252.932480 136.029388,249.654831 
	C140.089447,247.751389 144.231155,246.021362 148.344559,244.232742 
	C150.852676,243.142136 151.321671,241.342621 150.291565,238.950394 
	C145.627960,228.120163 140.973618,217.285934 136.315781,206.453217 
	C135.101410,203.628952 133.419769,203.016632 130.406693,204.340454 
	C119.615631,209.081604 108.674973,213.481110 97.848213,218.142960 
	C94.941795,219.394409 93.572029,218.999023 92.266998,215.812576 
	C87.677536,204.606613 82.490898,193.643646 77.975121,182.409897 
	C76.343170,178.350098 74.545052,177.913132 70.853714,179.553162 
	C59.478073,184.607224 47.991848,189.412704 36.537888,194.289627 
	C35.644939,194.669846 34.668919,194.854950 33.261013,195.269135 
	C28.361248,183.731125 23.360392,172.374420 18.715939,160.873764 
	C15.514850,152.947174 15.629669,152.614578 23.622889,149.144272 
	C47.240479,138.890533 70.971855,128.899063 94.602684,118.675468 
	C98.966858,116.787361 101.094658,117.203217 102.927063,122.261642 
	C106.538155,132.230270 111.306152,141.773376 115.281502,151.619324 
	C117.127441,156.191254 119.638504,156.399948 123.700249,154.605652 
	C134.487000,149.840469 145.458420,145.492981 156.240219,140.717133 
	C159.310791,139.356995 160.812363,140.016129 162.017181,142.906357 
	C166.168579,152.865082 170.385620,162.796585 174.615768,172.722214 
	C175.398209,174.558090 176.440521,176.283646 177.214874,178.122437 
	C178.212753,180.492020 179.645844,180.851547 181.975632,179.850006 
	C202.894409,170.857483 223.849808,161.950195 244.786774,152.999939 
	C249.060501,151.172989 253.258499,149.161560 257.573639,147.441452 
	C260.476532,146.284271 260.701324,144.634750 259.543396,141.990005 
	C254.547409,130.579254 249.825500,119.046432 244.692520,107.698868 
	C242.877441,103.686234 245.198929,102.742622 247.960312,101.544220 
	C259.089020,96.714493 270.203796,91.852730 281.316223,86.985664 
	C281.902588,86.728859 282.420074,86.314735 283.301880,85.767746 
	C278.592194,72.092804 271.956360,59.278679 266.615265,45.351753 
	C276.360718,41.111305 285.887268,36.900894 295.465851,32.812527 
	C312.734619,25.441816 330.066345,18.217430 347.292419,10.748899 
	C350.418610,9.393508 352.172760,9.671432 353.527100,12.912111 
	C358.326111,24.395096 363.219940,35.838726 368.132538,47.273785 
	C369.482483,50.416115 368.965881,52.352524 365.503876,53.759663 
	C355.514374,57.819935 345.667297,62.229019 335.719086,66.393082 
	C329.929810,68.816330 329.449524,69.930618 331.985443,75.743515 
	C336.301849,85.637642 340.587494,95.545654 344.806946,105.481445 
	C347.252747,111.240807 346.773254,112.025963 341.135345,114.365784 
	C331.012207,118.567055 320.974731,122.974571 310.855072,127.184479 
	C306.506439,128.993576 305.329895,131.420151 307.438660,135.999130 
	C312.020538,145.947922 316.197601,156.086746 320.374329,166.216293 
	C321.624725,169.248825 323.149231,169.762650 326.114624,168.443344 
	C335.069397,164.459473 344.145264,160.748688 353.143127,156.860138 
	C355.136383,155.998703 357.097595,155.155151 359.665497,154.930420 
	C366.168121,167.468201 370.363373,181.177856 377.404755,194.071777 
	C384.166016,192.607178 390.112244,189.264206 396.291626,186.663284 
	C415.434692,178.605957 434.499634,170.361801 453.551331,162.089767 
	C457.308777,160.458313 459.233246,160.871078 460.939178,165.162720 
	C465.835968,177.481506 471.346588,189.556305 476.858826,202.288010 
	C488.853363,197.217163 500.601318,192.250565 512.674683,187.141968 
	C513.000000,204.354233 513.000000,221.708450 512.643372,239.647491 
	C510.269135,240.987717 508.219910,241.668823 506.238953,242.510529 
	C492.185699,248.481766 478.140656,254.472443 464.107483,260.490753 
	C461.279266,261.703644 459.143677,261.792114 457.738922,258.335144 
	C453.742188,248.499619 449.516205,238.757523 445.428467,228.958603 
	C441.580658,219.734695 441.609344,219.727417 432.336731,223.962936 
	C431.279175,224.445999 430.181763,224.840942 429.112610,225.299545 
	C419.502594,229.421616 409.880096,233.515015 400.295502,237.695358 
	C397.478149,238.924149 396.324005,240.620804 398.042847,243.935776 
	C400.480988,248.638092 402.510773,253.582932 404.343201,258.561005 
	C406.787201,265.200531 410.670746,271.297760 412.334900,278.646027 
	C399.460449,284.243195 386.907837,289.700470 373.960022,295.329529 
	C379.329285,308.601501 384.456451,321.259064 390.426819,333.852142 
	C403.246582,328.396057 415.642334,323.199158 427.958496,317.819977 
	C430.819550,316.570374 432.936676,316.159393 434.381134,319.594208 
	C439.335754,331.376160 444.290588,343.158997 449.393555,354.876984 
	C450.889526,358.312103 449.280640,359.654816 446.447693,360.829742 
	C439.245758,363.816650 432.168243,367.115112 424.904388,369.937500 
	C418.790924,372.312897 413.003510,375.617584 406.434204,377.198547 
	C400.618378,363.772308 394.974854,350.743774 389.094116,337.167633 
	C374.638977,343.176453 360.776245,348.938995 346.994293,354.667969 
	C346.289062,353.607300 345.951050,353.234070 345.763092,352.796417 
	C341.048035,341.818176 336.354095,330.830811 331.642303,319.851166 
	C330.662537,317.568024 329.718201,314.478149 326.540588,315.704926 
	C319.977417,318.238708 313.138184,320.313873 306.912476,324.689423 
	C322.715790,348.484589 338.270874,371.998291 353.975403,395.411774 
	C355.574432,397.795715 358.007477,398.698425 361.391724,397.952637 
	C374.286377,395.110992 386.751068,396.703278 397.390564,404.808655 
	C408.869537,413.553558 416.846527,425.598297 425.090424,437.236755 
	C433.165558,448.636963 439.219452,461.276367 446.474213,473.184143 
	C454.584259,486.495819 462.819336,499.731354 471.000000,513.000000 
	C421.312439,513.000000 371.624878,513.000000 321.468658,513.000000 
M312.353882,224.902328 
	C308.271790,226.727875 304.271454,228.778076 300.080017,230.303024 
	C297.092346,231.390030 296.709900,232.865250 297.888885,235.541901 
	C302.938904,247.006989 307.896973,258.512573 313.066193,270.412323 
	C325.709747,265.014496 338.057098,259.752441 350.395172,254.468887 
	C353.322998,253.215118 352.378021,251.115646 351.495880,249.050873 
	C347.200531,238.997177 342.740479,229.008820 338.704437,218.852005 
	C337.234497,215.152893 335.481812,214.979431 332.275970,216.431656 
	C325.936523,219.303360 319.464233,221.881836 312.353882,224.902328 
M178.270004,294.327820 
	C181.922287,302.695221 185.653458,311.029633 189.176605,319.451050 
	C190.174271,321.835785 191.455292,322.547119 193.772217,321.547852 
	C205.060837,316.679138 216.349396,311.810272 227.642929,306.952942 
	C229.889648,305.986633 230.578903,304.517975 229.555481,302.180023 
	C225.226776,292.291229 220.710358,282.473267 216.774521,272.428802 
	C214.901611,267.649048 212.449570,267.577881 208.443985,269.380707 
	C199.959808,273.199249 191.429352,276.936554 182.782639,280.366211 
	C174.334579,283.717072 174.261902,283.530457 177.272079,291.773346 
	C177.499588,292.396362 177.694229,293.031403 178.270004,294.327820 
M378.357788,445.142731 
	C375.342590,443.703308 373.289886,444.903778 371.948242,447.628265 
	C370.756256,450.048950 371.988983,451.855499 373.979492,452.986908 
	C376.256897,454.281433 378.521698,453.639862 380.198883,451.743835 
	C382.418518,449.234528 381.061798,447.252136 378.357788,445.142731 
z"/>
</svg>